<svg width="20" height="20" viewBox="0 0 20 20" fill="none" xmlns="http://www.w3.org/2000/svg">
<path d="M4.58333 1.875C4.19656 1.875 3.82563 2.02865 3.55214 2.30214C3.27865 2.57563 3.125 2.94656 3.125 3.33333V5.83333C3.125 6.63833 3.77833 7.29167 4.58333 7.29167H12.9167C13.3034 7.29167 13.6744 7.13802 13.9479 6.86453C14.2214 6.59104 14.375 6.22011 14.375 5.83333V5.20833H14.5833C14.9858 5.20833 15.2625 5.28333 15.4192 5.38583C15.5358 5.4625 15.625 5.57333 15.625 5.83333V7.5C15.625 8.075 15.1583 8.54167 14.5833 8.54167H8.75C8.36323 8.54167 7.99229 8.69531 7.7188 8.9688C7.44531 9.24229 7.29167 9.61323 7.29167 10V16.6667C7.29167 17.4717 7.945 18.125 8.75 18.125H9.58333C9.74909 18.125 9.90806 18.0592 10.0253 17.9419C10.1425 17.8247 10.2083 17.6658 10.2083 17.5C10.2083 17.3342 10.1425 17.1753 10.0253 17.0581C9.90806 16.9408 9.74909 16.875 9.58333 16.875H8.75C8.69475 16.875 8.64176 16.8531 8.60269 16.814C8.56362 16.7749 8.54167 16.7219 8.54167 16.6667V10C8.54167 9.94475 8.56362 9.89176 8.60269 9.85269C8.64176 9.81362 8.69475 9.79167 8.75 9.79167H14.5833C15.1911 9.79167 15.774 9.55022 16.2038 9.12045C16.6336 8.69068 16.875 8.10779 16.875 7.5V5.83333C16.875 5.17333 16.5917 4.65833 16.1042 4.34C15.6575 4.04833 15.1008 3.95833 14.5833 3.95833H14.375V3.33333C14.375 2.94656 14.2214 2.57563 13.9479 2.30214C13.6744 2.02865 13.3034 1.875 12.9167 1.875H4.58333Z" fill="#65A392"/>
</svg>
